<svg width="374" height="70" viewBox="0 0 374 70" fill="none" xmlns="http://www.w3.org/2000/svg">
<path d="M24.5386 59.9429C21.1163 59.9429 18.3536 58.92 16.2507 56.8744C14.1478 54.8288 13.0964 52.1489 13.0964 48.835V47.2393C13.0964 47.0348 13.1582 46.8711 13.2819 46.7484C13.4469 46.5847 13.6324 46.5029 13.8386 46.5029H19.4669C19.6731 46.5029 19.838 46.5847 19.9617 46.7484C20.1267 46.8711 20.2091 47.0348 20.2091 47.2393V48.4667C20.2091 50.0624 20.6008 51.3511 21.3843 52.333C22.2089 53.315 23.2604 53.8059 24.5386 53.8059C25.8169 53.8059 26.8683 53.3559 27.693 52.4558C28.5176 51.5148 28.93 50.2874 28.93 48.7736C28.93 47.7099 28.7032 46.7893 28.2496 46.012C27.7961 45.2346 27.1569 44.4981 26.3323 43.8026C25.5076 43.1071 24.1881 42.1047 22.3739 40.7955C20.3122 39.3226 18.6423 38.0134 17.364 36.8678C16.127 35.7222 15.0756 34.3517 14.2097 32.7561C13.385 31.1195 12.9727 29.2376 12.9727 27.11C12.9727 23.7143 14.0035 21.014 16.0652 19.0092C18.1268 17.0044 20.8482 16.0021 24.2294 16.0021C27.6517 16.0021 30.4144 17.0658 32.5173 19.1933C34.6202 21.2799 35.6716 24.062 35.6716 27.5396V29.0125C35.6716 29.217 35.5892 29.4011 35.4242 29.5648C35.3005 29.6876 35.1356 29.7489 34.9295 29.7489H29.3629C29.1568 29.7489 28.9713 29.6876 28.8063 29.5648C28.6826 29.4011 28.6207 29.217 28.6207 29.0125V27.4169C28.6207 25.8213 28.2084 24.5529 27.3837 23.612C26.6003 22.63 25.5488 22.1391 24.2294 22.1391C22.9924 22.1391 21.9822 22.5891 21.1987 23.4892C20.4153 24.3484 20.0236 25.5554 20.0236 27.11C20.0236 28.5829 20.4359 29.8307 21.2606 30.8536C22.1265 31.8765 23.7964 33.288 26.2704 35.0881C28.7857 36.9292 30.6824 38.443 31.9606 39.6295C33.2389 40.7751 34.2285 42.0433 34.9295 43.4344C35.6304 44.8255 35.9809 46.4825 35.9809 48.4054C35.9809 51.883 34.9294 54.6855 32.8265 56.813C30.7236 58.8996 27.961 59.9429 24.5386 59.9429ZM46.046 59.452C45.5925 59.452 45.3244 59.2269 45.242 58.7769L38.624 28.8284V28.5829C38.624 28.2147 38.8508 28.0306 39.3044 28.0306H44.7472C45.242 28.0306 45.51 28.2556 45.5512 28.7057L48.7674 47.7917C48.8087 47.9144 48.8706 47.9758 48.953 47.9758C49.0354 47.9758 49.0973 47.9144 49.1385 47.7917L52.5403 28.7057C52.5816 28.2556 52.8496 28.0306 53.3444 28.0306H58.1687C58.6635 28.0306 58.9314 28.2556 58.9727 28.7057L62.4363 47.853C62.4776 47.9758 62.5394 48.0372 62.6219 48.0372C62.7043 48.0372 62.7662 47.9758 62.8074 47.853L66.0855 28.7057C66.1268 28.2556 66.3947 28.0306 66.8895 28.0306L72.2705 28.1533C72.8066 28.1533 73.0127 28.4192 72.889 28.9511L66.271 58.7769C66.1886 59.2269 65.9205 59.452 65.467 59.452H59.9005C59.4057 59.452 59.1377 59.2269 59.0964 58.7769L55.8184 40.8569C55.7771 40.7341 55.7152 40.6728 55.6328 40.6728C55.5504 40.6728 55.4885 40.7341 55.4473 40.8569L52.2311 58.7769C52.1898 59.2269 51.9218 59.452 51.427 59.452H46.046ZM80.6695 23.7961C79.3913 23.7961 78.3398 23.3869 77.5152 22.5687C76.6905 21.7504 76.2782 20.7071 76.2782 19.4388C76.2782 18.1705 76.6905 17.1272 77.5152 16.3089C78.3398 15.4907 79.3913 15.0815 80.6695 15.0815C81.9478 15.0815 82.9786 15.4907 83.7621 16.3089C84.5867 17.1272 84.9991 18.1705 84.9991 19.4388C84.9991 20.7071 84.5867 21.7504 83.7621 22.5687C82.9374 23.3869 81.9065 23.7961 80.6695 23.7961ZM77.8863 59.452C77.6802 59.452 77.4946 59.3906 77.3296 59.2678C77.2059 59.1042 77.1441 58.92 77.1441 58.7155V28.8284C77.1441 28.6239 77.2059 28.4602 77.3296 28.3374C77.4946 28.1737 77.6802 28.092 77.8863 28.092H83.5765C83.7826 28.092 83.9476 28.1737 84.0713 28.3374C84.2363 28.4602 84.3187 28.6239 84.3187 28.8284V58.7155C84.3187 58.92 84.2363 59.1042 84.0713 59.2678C83.9476 59.3906 83.7826 59.452 83.5765 59.452H77.8863ZM103.421 32.3878C103.421 32.5924 103.339 32.7765 103.173 32.9402C103.05 33.0629 102.884 33.1243 102.679 33.1243H98.8438C98.638 33.1243 98.5346 33.2266 98.5346 33.4311V49.51C98.5346 50.942 98.8023 51.9444 99.3386 52.5172C99.875 53.0491 100.679 53.2945 101.751 53.2536H102.184C102.39 53.2536 102.555 53.3354 102.679 53.4991C102.844 53.6218 102.926 53.7855 102.926 53.99V58.7155C102.926 58.92 102.844 59.1042 102.679 59.2678C102.555 59.3906 102.39 59.452 102.184 59.452H100.081C97.2773 59.452 95.1534 58.9406 93.7103 57.9177C92.3083 56.8948 91.6074 54.972 91.6074 52.1489V33.4311C91.6074 33.2266 91.5042 33.1243 91.2981 33.1243H89.1333C88.9272 33.1243 88.7417 33.0629 88.5767 32.9402C88.453 32.7765 88.3911 32.5924 88.3911 32.3878V28.8284C88.3911 28.6239 88.453 28.4602 88.5767 28.3374C88.7417 28.1737 88.9272 28.092 89.1333 28.092H91.2981C91.5042 28.092 91.6074 27.9896 91.6074 27.7851V21.0344C91.6074 20.8299 91.6692 20.6662 91.7929 20.5435C91.9579 20.3798 92.1434 20.298 92.3496 20.298H97.7924C97.9982 20.298 98.1635 20.3798 98.2872 20.5435C98.4524 20.6662 98.5346 20.8299 98.5346 21.0344V27.7851C98.5346 27.9896 98.638 28.092 98.8438 28.092H102.679C102.884 28.092 103.05 28.1737 103.173 28.3374C103.339 28.4602 103.421 28.6239 103.421 28.8284V32.3878ZM118.094 59.9429C114.712 59.9429 112.032 59.0428 110.053 57.2426C108.115 55.4425 107.146 53.0081 107.146 49.9396V37.5429C107.146 34.5562 108.115 32.1628 110.053 30.3626C112.032 28.5215 114.712 27.601 118.094 27.601C121.474 27.601 124.155 28.5011 126.134 30.3013C128.113 32.0606 129.103 34.3107 129.103 37.052V37.9111C129.103 38.1157 129.02 38.2998 128.856 38.4635C128.732 38.5862 128.567 38.6476 128.361 38.6476L122.671 38.893C122.176 38.893 121.928 38.6476 121.928 38.1566V37.5429C121.928 36.5201 121.557 35.6404 120.815 34.904C120.113 34.1266 119.207 33.738 118.094 33.738C116.98 33.738 116.073 34.1471 115.372 34.9654C114.671 35.7836 114.321 36.8269 114.321 38.0952V49.4487C114.321 50.717 114.671 51.7603 115.372 52.5785C116.073 53.3968 116.98 53.8059 118.094 53.8059C119.207 53.8059 120.113 53.4377 120.815 52.7013C121.557 51.9239 121.928 51.0033 121.928 49.9396V49.3259C121.928 49.1214 121.99 48.9577 122.114 48.835C122.278 48.6713 122.464 48.5895 122.671 48.5895L128.361 48.6509C128.567 48.6509 128.732 48.7327 128.856 48.8963C129.02 49.0191 129.103 49.1828 129.103 49.3873V50.492C129.103 53.315 128.113 55.6061 126.134 57.3654C124.155 59.0837 121.474 59.9429 118.094 59.9429ZM147.279 27.601C149.959 27.601 151.98 28.5011 153.341 30.3013C154.742 32.0606 155.443 34.5767 155.443 37.8498V58.7155C155.443 58.92 155.36 59.1042 155.196 59.2678C155.072 59.3906 154.907 59.452 154.701 59.452H149.011C148.804 59.452 148.619 59.3906 148.454 59.2678C148.331 59.1042 148.269 58.92 148.269 58.7155V38.4021C148.269 36.9292 147.96 35.7836 147.341 34.9654C146.723 34.1471 145.835 33.738 144.682 33.738C143.485 33.738 142.557 34.1676 141.898 35.0267C141.238 35.8859 140.909 37.0724 140.909 38.5862V58.7155C140.909 58.92 140.826 59.1042 140.661 59.2678C140.538 59.3906 140.372 59.452 140.166 59.452H134.476C134.269 59.452 134.084 59.3906 133.92 59.2678C133.796 59.1042 133.734 58.92 133.734 58.7155V17.2295C133.734 17.025 133.796 16.8613 133.92 16.7385C134.084 16.5748 134.269 16.4931 134.476 16.4931H140.166C140.372 16.4931 140.538 16.5748 140.661 16.7385C140.826 16.8613 140.909 17.025 140.909 17.2295V30.0558C140.909 30.1785 140.949 30.2603 141.032 30.3013C141.156 30.3013 141.28 30.2195 141.403 30.0558C142.805 28.4192 144.764 27.601 147.279 27.601ZM172.295 59.9429C168.79 59.9429 165.965 58.8996 163.821 56.813C161.718 54.6855 160.667 51.883 160.667 48.4054V27.4783C160.667 23.9597 161.718 21.1776 163.821 19.132C165.965 17.0454 168.79 16.0021 172.295 16.0021C175.84 16.0021 178.686 17.0454 180.83 19.132C182.974 21.1776 184.046 23.9597 184.046 27.4783V28.2147C184.046 28.4192 183.963 28.6033 183.799 28.767C183.675 28.9307 183.51 29.0125 183.304 29.0125L177.552 29.258C177.057 29.258 176.81 29.0125 176.81 28.5215V26.9873C176.81 25.5554 176.397 24.3893 175.573 23.4892C174.747 22.5891 173.655 22.1391 172.295 22.1391C170.975 22.1391 169.903 22.5891 169.078 23.4892C168.253 24.3893 167.841 25.5554 167.841 26.9873V48.9577C167.841 50.3896 168.253 51.5557 169.078 52.4558C169.903 53.3559 170.975 53.8059 172.295 53.8059C173.655 53.8059 174.747 53.3559 175.573 52.4558C176.397 51.5557 176.81 50.3896 176.81 48.9577V47.4235C176.81 47.2189 176.872 47.0552 176.995 46.9325C177.16 46.7688 177.345 46.687 177.552 46.687L183.304 46.9325C183.51 46.9325 183.675 47.0143 183.799 47.178C183.963 47.3007 184.046 47.4644 184.046 47.6689V48.4054C184.046 51.883 182.974 54.6855 180.83 56.813C178.686 58.8996 175.84 59.9429 172.295 59.9429ZM199.273 59.9429C195.851 59.9429 193.15 59.0428 191.171 57.2426C189.233 55.4425 188.264 53.0081 188.264 49.9396V37.6043C188.264 34.5767 189.253 32.1628 191.232 30.3626C193.212 28.5215 195.891 27.601 199.273 27.601C202.695 27.601 205.396 28.5215 207.375 30.3626C209.355 32.1628 210.344 34.5767 210.344 37.6043V49.9396C210.344 53.0081 209.355 55.4425 207.375 57.2426C205.438 59.0428 202.737 59.9429 199.273 59.9429ZM199.273 53.7446C200.428 53.7446 201.356 53.3559 202.056 52.5785C202.798 51.7603 203.17 50.6965 203.17 49.3873V38.0952C203.17 36.8269 202.798 35.7836 202.056 34.9654C201.356 34.1471 200.428 33.738 199.273 33.738C198.118 33.738 197.19 34.1471 196.49 34.9654C195.789 35.7428 195.438 36.786 195.438 38.0952V49.3873C195.438 50.6965 195.789 51.7603 196.49 52.5785C197.19 53.3559 198.118 53.7446 199.273 53.7446ZM229.619 17.2295C229.619 17.025 229.681 16.8613 229.805 16.7385C229.97 16.5748 230.155 16.4931 230.361 16.4931H236.052C236.257 16.4931 236.423 16.5748 236.546 16.7385C236.712 16.8613 236.794 17.025 236.794 17.2295V58.7155C236.794 58.92 236.712 59.1042 236.546 59.2678C236.423 59.3906 236.257 59.452 236.052 59.452H230.361C230.155 59.452 229.97 59.3906 229.805 59.2678C229.681 59.1042 229.619 58.92 229.619 58.7155V57.9791C229.619 57.8563 229.578 57.7745 229.495 57.7336C229.413 57.6926 229.33 57.7132 229.248 57.795C227.764 59.2269 225.908 59.9429 223.682 59.9429C220.919 59.9429 218.775 59.0428 217.249 57.2426C215.723 55.4425 214.961 53.0285 214.961 50.001V37.5429C214.961 34.4335 215.723 31.9992 217.249 30.2399C218.816 28.4806 220.96 27.601 223.682 27.601C224.63 27.601 225.599 27.7851 226.588 28.1533C227.578 28.4806 228.464 29.0329 229.248 29.8103C229.33 29.8921 229.413 29.9126 229.495 29.8717C229.578 29.8307 229.619 29.7489 229.619 29.6262V17.2295ZM225.908 53.8059C226.898 53.8059 227.722 53.4991 228.382 52.8854C229.042 52.2307 229.454 51.3716 229.619 50.3078V37.2361C229.454 36.1723 229.042 35.3336 228.382 34.7199C227.722 34.0653 226.898 33.738 225.908 33.738C224.753 33.738 223.826 34.1471 223.125 34.9654C222.424 35.7428 222.073 36.786 222.073 38.0952V49.4487C222.073 50.7579 222.424 51.8217 223.125 52.6399C223.826 53.4173 224.753 53.8059 225.908 53.8059ZM263.855 45.6437C263.855 45.8483 263.772 46.0324 263.608 46.1961C263.484 46.3188 263.319 46.3802 263.113 46.3802H249.444C249.237 46.3802 249.135 46.4825 249.135 46.687V49.4487C249.135 50.717 249.485 51.7603 250.186 52.5785C250.887 53.3968 251.794 53.8059 252.908 53.8059C253.856 53.8059 254.66 53.5195 255.32 52.9467C256.02 52.333 256.474 51.5557 256.68 50.6147C256.804 50.2055 257.072 50.001 257.485 50.001L262.989 50.2465C263.195 50.2465 263.36 50.3283 263.484 50.492C263.648 50.6147 263.71 50.7988 263.67 51.0443C263.381 53.9082 262.329 56.1176 260.515 57.6722C258.7 59.1861 256.164 59.9429 252.908 59.9429C249.526 59.9429 246.846 59.0633 244.867 57.304C242.929 55.5039 241.96 53.0695 241.96 50.001V37.5429C241.96 34.5562 242.929 32.1628 244.867 30.3626C246.846 28.5215 249.526 27.601 252.908 27.601C256.288 27.601 258.948 28.5215 260.886 30.3626C262.866 32.1628 263.855 34.5562 263.855 37.5429V45.6437ZM252.908 33.738C251.794 33.738 250.887 34.1471 250.186 34.9654C249.485 35.7836 249.135 36.8269 249.135 38.0952V40.8569C249.135 41.0614 249.237 41.1637 249.444 41.1637H256.433C256.639 41.1637 256.742 41.0614 256.742 40.8569V38.0952C256.742 36.786 256.392 35.7428 255.691 34.9654C254.989 34.1471 254.062 33.738 252.908 33.738ZM278.439 59.8202C275.181 59.8202 272.584 59.0428 270.646 57.4881C268.708 55.9334 267.739 53.8264 267.739 51.167V50.7374C267.739 50.5329 267.801 50.3692 267.925 50.2465C268.09 50.0828 268.275 50.001 268.481 50.001H273.8C274.006 50.001 274.172 50.0828 274.295 50.2465C274.46 50.3692 274.543 50.5329 274.543 50.7374V51.0443C274.543 52.0262 274.914 52.8444 275.656 53.4991C276.44 54.1537 277.388 54.481 278.501 54.481C279.573 54.481 280.418 54.1741 281.037 53.5604C281.655 52.9467 281.965 52.1694 281.965 51.2284C281.965 50.4102 281.697 49.7351 281.161 49.2032C280.624 48.6304 280.047 48.2008 279.429 47.9144C278.81 47.628 277.697 47.1576 276.089 46.5029C273.739 45.6028 271.801 44.4573 270.275 43.0662C268.791 41.6751 268.048 39.6091 268.048 36.8678C268.048 34.0039 268.956 31.7741 270.77 30.1785C272.625 28.542 275.12 27.7237 278.254 27.7237C281.47 27.7237 284.006 28.5829 285.861 30.3013C287.758 31.9787 288.706 34.2494 288.706 37.1133C288.706 37.3179 288.624 37.502 288.459 37.6656C288.335 37.7884 288.17 37.8498 287.964 37.8498H282.769C282.563 37.8498 282.377 37.7884 282.212 37.6656C282.088 37.502 282.026 37.3179 282.026 37.1133V36.7451C282.026 35.7632 281.676 34.945 280.975 34.2903C280.315 33.6357 279.47 33.3084 278.439 33.3084C277.367 33.3084 276.501 33.6562 275.841 34.3517C275.223 35.0063 274.914 35.8041 274.914 36.7451C274.914 37.5225 275.161 38.177 275.656 38.7089C276.151 39.2408 276.707 39.6704 277.326 39.9977C277.944 40.2841 278.976 40.7341 280.418 41.3478C282.15 42.0433 283.593 42.7389 284.748 43.4344C285.943 44.0891 286.974 45.0505 287.84 46.3188C288.748 47.5462 289.201 49.0804 289.201 50.9215C289.201 53.6628 288.232 55.8311 286.294 57.4267C284.356 59.0224 281.738 59.8202 278.439 59.8202Z" fill="#115175"/>
<path d="M329.884 16.3013H301.521V25.6818H307.194H339.337L329.884 16.3013Z" fill="#61B8E8"/>
<path d="M301.521 27.5579H318.539L329.884 16.3013L350.682 36.9385H324.211H318.539H301.521V27.5579Z" fill="#269DE0"/>
<path d="M301.521 38.8143H329.884L341.228 27.5576L362.027 48.1949H312.866H307.194H301.521V38.8143Z" fill="#1978AD"/>
<path d="M301.521 50.0716H341.228L352.573 38.8149L373.372 59.4522H324.211H318.539H301.521V50.0716Z" fill="#115175"/>
</svg>
